<?xml version="1.0" encoding="UTF-8"?><!DOCTYPE svg PUBLIC "-//W3C//DTD SVG 1.1//EN" "http://www.w3.org/Graphics/SVG/1.1/DTD/svg11.dtd"><svg xmlns="http://www.w3.org/2000/svg"><defs/><symbol id="arrow-up" viewBox="0 0 1792 1792"><path d="M1675 971q0 51-37 90l-75 75q-38 38-91 38-54 0-90-38l-294-293v704q0 52-37.5 84.5t-90.5 32.5h-128q-53 0-90.5-32.5t-37.5-84.5v-704l-294 293q-36 38-90 38t-90-38l-75-75q-38-38-38-90 0-53 38-91l651-651q35-37 90-37 54 0 91 37l651 651q37 39 37 91z"/></symbol><symbol id="arrow-down" viewBox="0 0 1792 1792"><path d="M1675 832q0 53-37 90l-651 652q-39 37-91 37-53 0-90-37l-651-652q-38-36-38-90 0-53 38-91l74-75q39-37 91-37 53 0 90 37l294 294v-704q0-52 38-90t90-38h128q52 0 90 38t38 90v704l294-294q37-37 90-37 52 0 91 37l75 75q37 39 37 91z"/></symbol><symbol id="reply" viewBox="0 0 1792 1792"><path d="M1792 1120q0 166-127 451-3 7-10.5 24t-13.5 30-13 22q-12 17-28 17-15 0-23.5-10t-8.5-25q0-9 2.5-26.5t2.5-23.5q5-68 5-123 0-101-17.5-181t-48.5-138.5-80-101-105.5-69.5-133-42.5-154-21.5-175.5-6h-224v256q0 26-19 45t-45 19-45-19l-512-512q-19-19-19-45t19-45l512-512q19-19 45-19t45 19 19 45v256h224q713 0 875 403 53 134 53 333z"/></symbol><symbol id="retweet" viewBox="0 0 1792 1792"><path d="M1216 1504q0 13-9.5 22.5t-22.5 9.5h-960q-8 0-13.5-2t-9-7-5.5-8-3-11.5-1-11.5v-600h-192q-26 0-45-19t-19-45q0-24 15-41l320-384q19-22 49-22t49 22l320 384q15 17 15 41 0 26-19 45t-45 19h-192v384h576q16 0 25 11l160 192q7 11 7 21zm640-416q0 24-15 41l-320 384q-20 23-49 23t-49-23l-320-384q-15-17-15-41 0-26 19-45t45-19h192v-384h-576q-16 0-25-12l-160-192q-7-9-7-20 0-13 9.5-22.5t22.5-9.5h960q8 0 13.5 2t9 7 5.5 8 3 11.5 1 11.5v600h192q26 0 45 19t19 45z"/></symbol><symbol id="star" viewBox="0 0 1792 1792"><path d="M1728 647q0 22-26 48l-363 354 86 500q1 7 1 20 0 21-10.5 35.5t-30.5 14.5q-19 0-40-12l-449-236-449 236q-22 12-40 12-21 0-31.5-14.5t-10.5-35.5q0-6 2-20l86-500-364-354q-25-27-25-48 0-37 56-46l502-73 225-455q19-41 49-41t49 41l225 455 502 73q56 9 56 46z"/></symbol><symbol id="info-circle" viewBox="0 0 1792 1792"><path d="M1152 1376v-160q0-14-9-23t-23-9h-96v-512q0-14-9-23t-23-9h-320q-14 0-23 9t-9 23v160q0 14 9 23t23 9h96v320h-96q-14 0-23 9t-9 23v160q0 14 9 23t23 9h448q14 0 23-9t9-23zm-128-896v-160q0-14-9-23t-23-9h-192q-14 0-23 9t-9 23v160q0 14 9 23t23 9h192q14 0 23-9t9-23zm640 416q0 209-103 385.5t-279.5 279.5-385.5 103-385.5-103-279.5-279.5-103-385.5 103-385.5 279.5-279.5 385.5-103 385.5 103 279.5 279.5 103 385.5z"/></symbol><symbol id="clock-o" viewBox="0 0 1792 1792"><path d="M1024 544v448q0 14-9 23t-23 9h-320q-14 0-23-9t-9-23v-64q0-14 9-23t23-9h224v-352q0-14 9-23t23-9h64q14 0 23 9t9 23zm416 352q0-148-73-273t-198-198-273-73-273 73-198 198-73 273 73 273 198 198 273 73 273-73 198-198 73-273zm224 0q0 209-103 385.5t-279.5 279.5-385.5 103-385.5-103-279.5-279.5-103-385.5 103-385.5 279.5-279.5 385.5-103 385.5 103 279.5 279.5 103 385.5z"/></symbol></svg>